<?xml version="1.0" encoding="utf-8" standalone="no"?>
<!DOCTYPE svg PUBLIC "-//W3C//DTD SVG 1.1//EN"
  "http://www.w3.org/Graphics/SVG/1.1/DTD/svg11.dtd">
<svg xmlns:xlink="http://www.w3.org/1999/xlink" width="720pt" height="288pt" viewBox="0 0 720 288" xmlns="http://www.w3.org/2000/svg" version="1.1">
 <metadata>
  <rdf:RDF xmlns:dc="http://purl.org/dc/elements/1.1/" xmlns:cc="http://creativecommons.org/ns#" xmlns:rdf="http://www.w3.org/1999/02/22-rdf-syntax-ns#">
   <cc:Work>
    <dc:type rdf:resource="http://purl.org/dc/dcmitype/StillImage"/>
    <dc:date>2025-06-06T00:01:51.967453</dc:date>
    <dc:format>image/svg+xml</dc:format>
    <dc:creator>
     <cc:Agent>
      <dc:title>Matplotlib v3.10.0, https://matplotlib.org/</dc:title>
     </cc:Agent>
    </dc:creator>
   </cc:Work>
  </rdf:RDF>
 </metadata>
 <defs>
  <style type="text/css">*{stroke-linejoin: round; stroke-linecap: butt}</style>
 </defs>
 <g id="figure_1">
  <g id="patch_1">
   <path d="M 0 288 
L 720 288 
L 720 0 
L 0 0 
z
" style="fill: #ffffff"/>
  </g>
  <g id="axes_1">
   <g id="patch_2">
    <path d="M 90 256.32 
L 648 256.32 
L 648 34.56 
L 90 34.56 
z
" style="fill: #ffffff"/>
   </g>
   <g id="patch_3">
    <path d="M 137.722682 256.32 
L 161.968366 256.32 
L 161.968366 255.795931 
L 137.722682 255.795931 
z
" clip-path="url(#pcf22e2123e)" style="fill: #0000ff; fill-opacity: 0.5; stroke: #000000; stroke-linejoin: miter"/>
   </g>
   <g id="patch_4">
    <path d="M 161.968366 256.32 
L 186.214051 256.32 
L 186.214051 255.271861 
L 161.968366 255.271861 
z
" clip-path="url(#pcf22e2123e)" style="fill: #0000ff; fill-opacity: 0.5; stroke: #000000; stroke-linejoin: miter"/>
   </g>
   <g id="patch_5">
    <path d="M 186.214051 256.32 
L 210.459735 256.32 
L 210.459735 254.223722 
L 186.214051 254.223722 
z
" clip-path="url(#pcf22e2123e)" style="fill: #0000ff; fill-opacity: 0.5; stroke: #000000; stroke-linejoin: miter"/>
   </g>
   <g id="patch_6">
    <path d="M 210.459735 256.32 
L 234.705419 256.32 
L 234.705419 253.699653 
L 210.459735 253.699653 
z
" clip-path="url(#pcf22e2123e)" style="fill: #0000ff; fill-opacity: 0.5; stroke: #000000; stroke-linejoin: miter"/>
   </g>
   <g id="patch_7">
    <path d="M 234.705419 256.32 
L 258.951103 256.32 
L 258.951103 251.603375 
L 234.705419 251.603375 
z
" clip-path="url(#pcf22e2123e)" style="fill: #0000ff; fill-opacity: 0.5; stroke: #000000; stroke-linejoin: miter"/>
   </g>
   <g id="patch_8">
    <path d="M 258.951103 256.32 
L 283.196787 256.32 
L 283.196787 248.458958 
L 258.951103 248.458958 
z
" clip-path="url(#pcf22e2123e)" style="fill: #0000ff; fill-opacity: 0.5; stroke: #000000; stroke-linejoin: miter"/>
   </g>
   <g id="patch_9">
    <path d="M 283.196787 256.32 
L 307.442471 256.32 
L 307.442471 244.790471 
L 283.196787 244.790471 
z
" clip-path="url(#pcf22e2123e)" style="fill: #0000ff; fill-opacity: 0.5; stroke: #000000; stroke-linejoin: miter"/>
   </g>
   <g id="patch_10">
    <path d="M 307.442471 256.32 
L 331.688155 256.32 
L 331.688155 236.929429 
L 307.442471 236.929429 
z
" clip-path="url(#pcf22e2123e)" style="fill: #0000ff; fill-opacity: 0.5; stroke: #000000; stroke-linejoin: miter"/>
   </g>
   <g id="patch_11">
    <path d="M 331.688155 256.32 
L 355.933839 256.32 
L 355.933839 234.309082 
L 331.688155 234.309082 
z
" clip-path="url(#pcf22e2123e)" style="fill: #0000ff; fill-opacity: 0.5; stroke: #000000; stroke-linejoin: miter"/>
   </g>
   <g id="patch_12">
    <path d="M 355.933839 256.32 
L 380.179523 256.32 
L 380.179523 220.159206 
L 355.933839 220.159206 
z
" clip-path="url(#pcf22e2123e)" style="fill: #0000ff; fill-opacity: 0.5; stroke: #000000; stroke-linejoin: miter"/>
   </g>
   <g id="patch_13">
    <path d="M 380.179523 256.32 
L 404.425207 256.32 
L 404.425207 215.442581 
L 380.179523 215.442581 
z
" clip-path="url(#pcf22e2123e)" style="fill: #0000ff; fill-opacity: 0.5; stroke: #000000; stroke-linejoin: miter"/>
   </g>
   <g id="patch_14">
    <path d="M 404.425207 256.32 
L 428.670891 256.32 
L 428.670891 180.853995 
L 404.425207 180.853995 
z
" clip-path="url(#pcf22e2123e)" style="fill: #0000ff; fill-opacity: 0.5; stroke: #000000; stroke-linejoin: miter"/>
   </g>
   <g id="patch_15">
    <path d="M 428.670891 256.32 
L 452.916575 256.32 
L 452.916575 118.489727 
L 428.670891 118.489727 
z
" clip-path="url(#pcf22e2123e)" style="fill: #0000ff; fill-opacity: 0.5; stroke: #000000; stroke-linejoin: miter"/>
   </g>
   <g id="patch_16">
    <path d="M 452.916575 256.32 
L 477.162259 256.32 
L 477.162259 45.12 
L 452.916575 45.12 
z
" clip-path="url(#pcf22e2123e)" style="fill: #0000ff; fill-opacity: 0.5; stroke: #000000; stroke-linejoin: miter"/>
   </g>
   <g id="patch_17">
    <path d="M 477.162259 256.32 
L 501.407943 256.32 
L 501.407943 130.543325 
L 477.162259 130.543325 
z
" clip-path="url(#pcf22e2123e)" style="fill: #0000ff; fill-opacity: 0.5; stroke: #000000; stroke-linejoin: miter"/>
   </g>
   <g id="patch_18">
    <path d="M 501.407943 256.32 
L 525.653627 256.32 
L 525.653627 141.548784 
L 501.407943 141.548784 
z
" clip-path="url(#pcf22e2123e)" style="fill: #0000ff; fill-opacity: 0.5; stroke: #000000; stroke-linejoin: miter"/>
   </g>
   <g id="patch_19">
    <path d="M 525.653627 256.32 
L 549.899311 256.32 
L 549.899311 169.848536 
L 525.653627 169.848536 
z
" clip-path="url(#pcf22e2123e)" style="fill: #0000ff; fill-opacity: 0.5; stroke: #000000; stroke-linejoin: miter"/>
   </g>
   <g id="patch_20">
    <path d="M 549.899311 256.32 
L 574.144996 256.32 
L 574.144996 208.629677 
L 549.899311 208.629677 
z
" clip-path="url(#pcf22e2123e)" style="fill: #0000ff; fill-opacity: 0.5; stroke: #000000; stroke-linejoin: miter"/>
   </g>
   <g id="patch_21">
    <path d="M 574.144996 256.32 
L 598.39068 256.32 
L 598.39068 228.544318 
L 574.144996 228.544318 
z
" clip-path="url(#pcf22e2123e)" style="fill: #0000ff; fill-opacity: 0.5; stroke: #000000; stroke-linejoin: miter"/>
   </g>
   <g id="patch_22">
    <path d="M 598.39068 256.32 
L 622.636364 256.32 
L 622.636364 246.36268 
L 598.39068 246.36268 
z
" clip-path="url(#pcf22e2123e)" style="fill: #0000ff; fill-opacity: 0.5; stroke: #000000; stroke-linejoin: miter"/>
   </g>
   <g id="patch_23">
    <path d="M 115.363636 256.32 
L 139.536068 256.32 
L 139.536068 254.220718 
L 115.363636 254.220718 
z
" clip-path="url(#pcf22e2123e)" style="fill: #ffa500; fill-opacity: 0.5; stroke: #000000; stroke-linejoin: miter"/>
   </g>
   <g id="patch_24">
    <path d="M 139.536068 256.32 
L 163.7085 256.32 
L 163.7085 256.32 
L 139.536068 256.32 
z
" clip-path="url(#pcf22e2123e)" style="fill: #ffa500; fill-opacity: 0.5; stroke: #000000; stroke-linejoin: miter"/>
   </g>
   <g id="patch_25">
    <path d="M 163.7085 256.32 
L 187.880932 256.32 
L 187.880932 254.220718 
L 163.7085 254.220718 
z
" clip-path="url(#pcf22e2123e)" style="fill: #ffa500; fill-opacity: 0.5; stroke: #000000; stroke-linejoin: miter"/>
   </g>
   <g id="patch_26">
    <path d="M 187.880932 256.32 
L 212.053364 256.32 
L 212.053364 256.32 
L 187.880932 256.32 
z
" clip-path="url(#pcf22e2123e)" style="fill: #ffa500; fill-opacity: 0.5; stroke: #000000; stroke-linejoin: miter"/>
   </g>
   <g id="patch_27">
    <path d="M 212.053364 256.32 
L 236.225796 256.32 
L 236.225796 256.32 
L 212.053364 256.32 
z
" clip-path="url(#pcf22e2123e)" style="fill: #ffa500; fill-opacity: 0.5; stroke: #000000; stroke-linejoin: miter"/>
   </g>
   <g id="patch_28">
    <path d="M 236.225796 256.32 
L 260.398228 256.32 
L 260.398228 256.32 
L 236.225796 256.32 
z
" clip-path="url(#pcf22e2123e)" style="fill: #ffa500; fill-opacity: 0.5; stroke: #000000; stroke-linejoin: miter"/>
   </g>
   <g id="patch_29">
    <path d="M 260.398228 256.32 
L 284.57066 256.32 
L 284.57066 247.922871 
L 260.398228 247.922871 
z
" clip-path="url(#pcf22e2123e)" style="fill: #ffa500; fill-opacity: 0.5; stroke: #000000; stroke-linejoin: miter"/>
   </g>
   <g id="patch_30">
    <path d="M 284.57066 256.32 
L 308.743092 256.32 
L 308.743092 235.327177 
L 284.57066 235.327177 
z
" clip-path="url(#pcf22e2123e)" style="fill: #ffa500; fill-opacity: 0.5; stroke: #000000; stroke-linejoin: miter"/>
   </g>
   <g id="patch_31">
    <path d="M 308.743092 256.32 
L 332.915524 256.32 
L 332.915524 229.02933 
L 308.743092 229.02933 
z
" clip-path="url(#pcf22e2123e)" style="fill: #ffa500; fill-opacity: 0.5; stroke: #000000; stroke-linejoin: miter"/>
   </g>
   <g id="patch_32">
    <path d="M 332.915524 256.32 
L 357.087956 256.32 
L 357.087956 229.02933 
L 332.915524 229.02933 
z
" clip-path="url(#pcf22e2123e)" style="fill: #ffa500; fill-opacity: 0.5; stroke: #000000; stroke-linejoin: miter"/>
   </g>
   <g id="patch_33">
    <path d="M 357.087956 256.32 
L 381.260388 256.32 
L 381.260388 224.830765 
L 357.087956 224.830765 
z
" clip-path="url(#pcf22e2123e)" style="fill: #ffa500; fill-opacity: 0.5; stroke: #000000; stroke-linejoin: miter"/>
   </g>
   <g id="patch_34">
    <path d="M 381.260388 256.32 
L 405.43282 256.32 
L 405.43282 222.731483 
L 381.260388 222.731483 
z
" clip-path="url(#pcf22e2123e)" style="fill: #ffa500; fill-opacity: 0.5; stroke: #000000; stroke-linejoin: miter"/>
   </g>
   <g id="patch_35">
    <path d="M 405.43282 256.32 
L 429.605252 256.32 
L 429.605252 189.142965 
L 405.43282 189.142965 
z
" clip-path="url(#pcf22e2123e)" style="fill: #ffa500; fill-opacity: 0.5; stroke: #000000; stroke-linejoin: miter"/>
   </g>
   <g id="patch_36">
    <path d="M 429.605252 256.32 
L 453.777684 256.32 
L 453.777684 88.377413 
L 429.605252 88.377413 
z
" clip-path="url(#pcf22e2123e)" style="fill: #ffa500; fill-opacity: 0.5; stroke: #000000; stroke-linejoin: miter"/>
   </g>
   <g id="patch_37">
    <path d="M 453.777684 256.32 
L 477.950115 256.32 
L 477.950115 54.788896 
L 453.777684 54.788896 
z
" clip-path="url(#pcf22e2123e)" style="fill: #ffa500; fill-opacity: 0.5; stroke: #000000; stroke-linejoin: miter"/>
   </g>
   <g id="patch_38">
    <path d="M 477.950115 256.32 
L 502.122547 256.32 
L 502.122547 111.469519 
L 477.950115 111.469519 
z
" clip-path="url(#pcf22e2123e)" style="fill: #ffa500; fill-opacity: 0.5; stroke: #000000; stroke-linejoin: miter"/>
   </g>
   <g id="patch_39">
    <path d="M 502.122547 256.32 
L 526.294979 256.32 
L 526.294979 151.355883 
L 502.122547 151.355883 
z
" clip-path="url(#pcf22e2123e)" style="fill: #ffa500; fill-opacity: 0.5; stroke: #000000; stroke-linejoin: miter"/>
   </g>
   <g id="patch_40">
    <path d="M 526.294979 256.32 
L 550.467411 256.32 
L 550.467411 176.547271 
L 526.294979 176.547271 
z
" clip-path="url(#pcf22e2123e)" style="fill: #ffa500; fill-opacity: 0.5; stroke: #000000; stroke-linejoin: miter"/>
   </g>
   <g id="patch_41">
    <path d="M 550.467411 256.32 
L 574.639843 256.32 
L 574.639843 212.235071 
L 550.467411 212.235071 
z
" clip-path="url(#pcf22e2123e)" style="fill: #ffa500; fill-opacity: 0.5; stroke: #000000; stroke-linejoin: miter"/>
   </g>
   <g id="patch_42">
    <path d="M 574.639843 256.32 
L 598.812275 256.32 
L 598.812275 231.128612 
L 574.639843 231.128612 
z
" clip-path="url(#pcf22e2123e)" style="fill: #ffa500; fill-opacity: 0.5; stroke: #000000; stroke-linejoin: miter"/>
   </g>
   <g id="patch_43">
    <path d="M 144.264971 256.32 
L 167.913688 256.32 
L 167.913688 255.245403 
L 144.264971 255.245403 
z
" clip-path="url(#pcf22e2123e)" style="fill: #008000; fill-opacity: 0.5; stroke: #000000; stroke-linejoin: miter"/>
   </g>
   <g id="patch_44">
    <path d="M 167.913688 256.32 
L 191.562406 256.32 
L 191.562406 255.782701 
L 167.913688 255.782701 
z
" clip-path="url(#pcf22e2123e)" style="fill: #008000; fill-opacity: 0.5; stroke: #000000; stroke-linejoin: miter"/>
   </g>
   <g id="patch_45">
    <path d="M 191.562406 256.32 
L 215.211123 256.32 
L 215.211123 253.633507 
L 191.562406 253.633507 
z
" clip-path="url(#pcf22e2123e)" style="fill: #008000; fill-opacity: 0.5; stroke: #000000; stroke-linejoin: miter"/>
   </g>
   <g id="patch_46">
    <path d="M 215.211123 256.32 
L 238.85984 256.32 
L 238.85984 254.170806 
L 215.211123 254.170806 
z
" clip-path="url(#pcf22e2123e)" style="fill: #008000; fill-opacity: 0.5; stroke: #000000; stroke-linejoin: miter"/>
   </g>
   <g id="patch_47">
    <path d="M 238.85984 256.32 
L 262.508557 256.32 
L 262.508557 249.335118 
L 238.85984 249.335118 
z
" clip-path="url(#pcf22e2123e)" style="fill: #008000; fill-opacity: 0.5; stroke: #000000; stroke-linejoin: miter"/>
   </g>
   <g id="patch_48">
    <path d="M 262.508557 256.32 
L 286.157274 256.32 
L 286.157274 248.797819 
L 262.508557 248.797819 
z
" clip-path="url(#pcf22e2123e)" style="fill: #008000; fill-opacity: 0.5; stroke: #000000; stroke-linejoin: miter"/>
   </g>
   <g id="patch_49">
    <path d="M 286.157274 256.32 
L 309.805991 256.32 
L 309.805991 242.350236 
L 286.157274 242.350236 
z
" clip-path="url(#pcf22e2123e)" style="fill: #008000; fill-opacity: 0.5; stroke: #000000; stroke-linejoin: miter"/>
   </g>
   <g id="patch_50">
    <path d="M 309.805991 256.32 
L 333.454708 256.32 
L 333.454708 238.589146 
L 309.805991 238.589146 
z
" clip-path="url(#pcf22e2123e)" style="fill: #008000; fill-opacity: 0.5; stroke: #000000; stroke-linejoin: miter"/>
   </g>
   <g id="patch_51">
    <path d="M 333.454708 256.32 
L 357.103425 256.32 
L 357.103425 227.843173 
L 333.454708 227.843173 
z
" clip-path="url(#pcf22e2123e)" style="fill: #008000; fill-opacity: 0.5; stroke: #000000; stroke-linejoin: miter"/>
   </g>
   <g id="patch_52">
    <path d="M 357.103425 256.32 
L 380.752142 256.32 
L 380.752142 225.693979 
L 357.103425 225.693979 
z
" clip-path="url(#pcf22e2123e)" style="fill: #008000; fill-opacity: 0.5; stroke: #000000; stroke-linejoin: miter"/>
   </g>
   <g id="patch_53">
    <path d="M 380.752142 256.32 
L 404.400859 256.32 
L 404.400859 207.425826 
L 380.752142 207.425826 
z
" clip-path="url(#pcf22e2123e)" style="fill: #008000; fill-opacity: 0.5; stroke: #000000; stroke-linejoin: miter"/>
   </g>
   <g id="patch_54">
    <path d="M 404.400859 256.32 
L 428.049577 256.32 
L 428.049577 184.859284 
L 404.400859 184.859284 
z
" clip-path="url(#pcf22e2123e)" style="fill: #008000; fill-opacity: 0.5; stroke: #000000; stroke-linejoin: miter"/>
   </g>
   <g id="patch_55">
    <path d="M 428.049577 256.32 
L 451.698294 256.32 
L 451.698294 130.054825 
L 428.049577 130.054825 
z
" clip-path="url(#pcf22e2123e)" style="fill: #008000; fill-opacity: 0.5; stroke: #000000; stroke-linejoin: miter"/>
   </g>
   <g id="patch_56">
    <path d="M 451.698294 256.32 
L 475.347011 256.32 
L 475.347011 56.982213 
L 451.698294 56.982213 
z
" clip-path="url(#pcf22e2123e)" style="fill: #008000; fill-opacity: 0.5; stroke: #000000; stroke-linejoin: miter"/>
   </g>
   <g id="patch_57">
    <path d="M 475.347011 256.32 
L 498.995728 256.32 
L 498.995728 105.876387 
L 475.347011 105.876387 
z
" clip-path="url(#pcf22e2123e)" style="fill: #008000; fill-opacity: 0.5; stroke: #000000; stroke-linejoin: miter"/>
   </g>
   <g id="patch_58">
    <path d="M 498.995728 256.32 
L 522.644445 256.32 
L 522.644445 141.338096 
L 498.995728 141.338096 
z
" clip-path="url(#pcf22e2123e)" style="fill: #008000; fill-opacity: 0.5; stroke: #000000; stroke-linejoin: miter"/>
   </g>
   <g id="patch_59">
    <path d="M 522.644445 256.32 
L 546.293162 256.32 
L 546.293162 170.88952 
L 522.644445 170.88952 
z
" clip-path="url(#pcf22e2123e)" style="fill: #008000; fill-opacity: 0.5; stroke: #000000; stroke-linejoin: miter"/>
   </g>
   <g id="patch_60">
    <path d="M 546.293162 256.32 
L 569.941879 256.32 
L 569.941879 205.81393 
L 546.293162 205.81393 
z
" clip-path="url(#pcf22e2123e)" style="fill: #008000; fill-opacity: 0.5; stroke: #000000; stroke-linejoin: miter"/>
   </g>
   <g id="patch_61">
    <path d="M 569.941879 256.32 
L 593.590596 256.32 
L 593.590596 218.709097 
L 569.941879 218.709097 
z
" clip-path="url(#pcf22e2123e)" style="fill: #008000; fill-opacity: 0.5; stroke: #000000; stroke-linejoin: miter"/>
   </g>
   <g id="patch_62">
    <path d="M 593.590596 256.32 
L 617.239313 256.32 
L 617.239313 242.350236 
L 593.590596 242.350236 
z
" clip-path="url(#pcf22e2123e)" style="fill: #008000; fill-opacity: 0.5; stroke: #000000; stroke-linejoin: miter"/>
   </g>
   <g id="patch_63">
    <path d="M 123.725897 256.32 
L 147.338099 256.32 
L 147.338099 254.170909 
L 123.725897 254.170909 
z
" clip-path="url(#pcf22e2123e)" style="fill: #ff0000; fill-opacity: 0.5; stroke: #000000; stroke-linejoin: miter"/>
   </g>
   <g id="patch_64">
    <path d="M 147.338099 256.32 
L 170.950301 256.32 
L 170.950301 254.170909 
L 147.338099 254.170909 
z
" clip-path="url(#pcf22e2123e)" style="fill: #ff0000; fill-opacity: 0.5; stroke: #000000; stroke-linejoin: miter"/>
   </g>
   <g id="patch_65">
    <path d="M 170.950301 256.32 
L 194.562503 256.32 
L 194.562503 256.32 
L 170.950301 256.32 
z
" clip-path="url(#pcf22e2123e)" style="fill: #ff0000; fill-opacity: 0.5; stroke: #000000; stroke-linejoin: miter"/>
   </g>
   <g id="patch_66">
    <path d="M 194.562503 256.32 
L 218.174705 256.32 
L 218.174705 256.32 
L 194.562503 256.32 
z
" clip-path="url(#pcf22e2123e)" style="fill: #ff0000; fill-opacity: 0.5; stroke: #000000; stroke-linejoin: miter"/>
   </g>
   <g id="patch_67">
    <path d="M 218.174705 256.32 
L 241.786907 256.32 
L 241.786907 256.32 
L 218.174705 256.32 
z
" clip-path="url(#pcf22e2123e)" style="fill: #ff0000; fill-opacity: 0.5; stroke: #000000; stroke-linejoin: miter"/>
   </g>
   <g id="patch_68">
    <path d="M 241.786907 256.32 
L 265.399109 256.32 
L 265.399109 256.32 
L 241.786907 256.32 
z
" clip-path="url(#pcf22e2123e)" style="fill: #ff0000; fill-opacity: 0.5; stroke: #000000; stroke-linejoin: miter"/>
   </g>
   <g id="patch_69">
    <path d="M 265.399109 256.32 
L 289.011311 256.32 
L 289.011311 243.425457 
L 265.399109 243.425457 
z
" clip-path="url(#pcf22e2123e)" style="fill: #ff0000; fill-opacity: 0.5; stroke: #000000; stroke-linejoin: miter"/>
   </g>
   <g id="patch_70">
    <path d="M 289.011311 256.32 
L 312.623514 256.32 
L 312.623514 236.978185 
L 289.011311 236.978185 
z
" clip-path="url(#pcf22e2123e)" style="fill: #ff0000; fill-opacity: 0.5; stroke: #000000; stroke-linejoin: miter"/>
   </g>
   <g id="patch_71">
    <path d="M 312.623514 256.32 
L 336.235716 256.32 
L 336.235716 230.530914 
L 312.623514 230.530914 
z
" clip-path="url(#pcf22e2123e)" style="fill: #ff0000; fill-opacity: 0.5; stroke: #000000; stroke-linejoin: miter"/>
   </g>
   <g id="patch_72">
    <path d="M 336.235716 256.32 
L 359.847918 256.32 
L 359.847918 234.829095 
L 336.235716 234.829095 
z
" clip-path="url(#pcf22e2123e)" style="fill: #ff0000; fill-opacity: 0.5; stroke: #000000; stroke-linejoin: miter"/>
   </g>
   <g id="patch_73">
    <path d="M 359.847918 256.32 
L 383.46012 256.32 
L 383.46012 213.33819 
L 359.847918 213.33819 
z
" clip-path="url(#pcf22e2123e)" style="fill: #ff0000; fill-opacity: 0.5; stroke: #000000; stroke-linejoin: miter"/>
   </g>
   <g id="patch_74">
    <path d="M 383.46012 256.32 
L 407.072322 256.32 
L 407.072322 213.33819 
L 383.46012 213.33819 
z
" clip-path="url(#pcf22e2123e)" style="fill: #ff0000; fill-opacity: 0.5; stroke: #000000; stroke-linejoin: miter"/>
   </g>
   <g id="patch_75">
    <path d="M 407.072322 256.32 
L 430.684524 256.32 
L 430.684524 174.654561 
L 407.072322 174.654561 
z
" clip-path="url(#pcf22e2123e)" style="fill: #ff0000; fill-opacity: 0.5; stroke: #000000; stroke-linejoin: miter"/>
   </g>
   <g id="patch_76">
    <path d="M 430.684524 256.32 
L 454.296726 256.32 
L 454.296726 125.225479 
L 430.684524 125.225479 
z
" clip-path="url(#pcf22e2123e)" style="fill: #ff0000; fill-opacity: 0.5; stroke: #000000; stroke-linejoin: miter"/>
   </g>
   <g id="patch_77">
    <path d="M 454.296726 256.32 
L 477.908928 256.32 
L 477.908928 47.85822 
L 454.296726 47.85822 
z
" clip-path="url(#pcf22e2123e)" style="fill: #ff0000; fill-opacity: 0.5; stroke: #000000; stroke-linejoin: miter"/>
   </g>
   <g id="patch_78">
    <path d="M 477.908928 256.32 
L 501.52113 256.32 
L 501.52113 95.138212 
L 477.908928 95.138212 
z
" clip-path="url(#pcf22e2123e)" style="fill: #ff0000; fill-opacity: 0.5; stroke: #000000; stroke-linejoin: miter"/>
   </g>
   <g id="patch_79">
    <path d="M 501.52113 256.32 
L 525.133332 256.32 
L 525.133332 146.716384 
L 501.52113 146.716384 
z
" clip-path="url(#pcf22e2123e)" style="fill: #ff0000; fill-opacity: 0.5; stroke: #000000; stroke-linejoin: miter"/>
   </g>
   <g id="patch_80">
    <path d="M 525.133332 256.32 
L 548.745534 256.32 
L 548.745534 172.50547 
L 525.133332 172.50547 
z
" clip-path="url(#pcf22e2123e)" style="fill: #ff0000; fill-opacity: 0.5; stroke: #000000; stroke-linejoin: miter"/>
   </g>
   <g id="patch_81">
    <path d="M 548.745534 256.32 
L 572.357736 256.32 
L 572.357736 221.934552 
L 548.745534 221.934552 
z
" clip-path="url(#pcf22e2123e)" style="fill: #ff0000; fill-opacity: 0.5; stroke: #000000; stroke-linejoin: miter"/>
   </g>
   <g id="patch_82">
    <path d="M 572.357736 256.32 
L 595.969938 256.32 
L 595.969938 224.083642 
L 572.357736 224.083642 
z
" clip-path="url(#pcf22e2123e)" style="fill: #ff0000; fill-opacity: 0.5; stroke: #000000; stroke-linejoin: miter"/>
   </g>
   <g id="matplotlib.axis_1">
    <g id="xtick_1">
     <g id="line2d_1">
      <defs>
       <path id="m295b0cb750" d="M 0 0 
L 0 3.5 
" style="stroke: #000000; stroke-width: 0.8"/>
      </defs>
      <g>
       <use xlink:href="#m295b0cb750" x="105.432095" y="256.32" style="stroke: #000000; stroke-width: 0.8"/>
      </g>
     </g>
     <g id="text_1">
      <!-- −3 -->
      <g transform="translate(98.061001 270.918437) scale(0.1 -0.1)">
       <defs>
        <path id="DejaVuSans-2212" d="M 678 2272 
L 4684 2272 
L 4684 1741 
L 678 1741 
L 678 2272 
z
" transform="scale(0.015625)"/>
        <path id="DejaVuSans-33" d="M 2597 2516 
Q 3050 2419 3304 2112 
Q 3559 1806 3559 1356 
Q 3559 666 3084 287 
Q 2609 -91 1734 -91 
Q 1441 -91 1130 -33 
Q 819 25 488 141 
L 488 750 
Q 750 597 1062 519 
Q 1375 441 1716 441 
Q 2309 441 2620 675 
Q 2931 909 2931 1356 
Q 2931 1769 2642 2001 
Q 2353 2234 1838 2234 
L 1294 2234 
L 1294 2753 
L 1863 2753 
Q 2328 2753 2575 2939 
Q 2822 3125 2822 3475 
Q 2822 3834 2567 4026 
Q 2313 4219 1838 4219 
Q 1578 4219 1281 4162 
Q 984 4106 628 3988 
L 628 4550 
Q 988 4650 1302 4700 
Q 1616 4750 1894 4750 
Q 2613 4750 3031 4423 
Q 3450 4097 3450 3541 
Q 3450 3153 3228 2886 
Q 3006 2619 2597 2516 
z
" transform="scale(0.015625)"/>
       </defs>
       <use xlink:href="#DejaVuSans-2212"/>
       <use xlink:href="#DejaVuSans-33" transform="translate(83.789062 0)"/>
      </g>
     </g>
    </g>
    <g id="xtick_2">
     <g id="line2d_2">
      <g>
       <use xlink:href="#m295b0cb750" x="225.014399" y="256.32" style="stroke: #000000; stroke-width: 0.8"/>
      </g>
     </g>
     <g id="text_2">
      <!-- −2 -->
      <g transform="translate(217.643305 270.918437) scale(0.1 -0.1)">
       <defs>
        <path id="DejaVuSans-32" d="M 1228 531 
L 3431 531 
L 3431 0 
L 469 0 
L 469 531 
Q 828 903 1448 1529 
Q 2069 2156 2228 2338 
Q 2531 2678 2651 2914 
Q 2772 3150 2772 3378 
Q 2772 3750 2511 3984 
Q 2250 4219 1831 4219 
Q 1534 4219 1204 4116 
Q 875 4013 500 3803 
L 500 4441 
Q 881 4594 1212 4672 
Q 1544 4750 1819 4750 
Q 2544 4750 2975 4387 
Q 3406 4025 3406 3419 
Q 3406 3131 3298 2873 
Q 3191 2616 2906 2266 
Q 2828 2175 2409 1742 
Q 1991 1309 1228 531 
z
" transform="scale(0.015625)"/>
       </defs>
       <use xlink:href="#DejaVuSans-2212"/>
       <use xlink:href="#DejaVuSans-32" transform="translate(83.789062 0)"/>
      </g>
     </g>
    </g>
    <g id="xtick_3">
     <g id="line2d_3">
      <g>
       <use xlink:href="#m295b0cb750" x="344.596703" y="256.32" style="stroke: #000000; stroke-width: 0.8"/>
      </g>
     </g>
     <g id="text_3">
      <!-- −1 -->
      <g transform="translate(337.22561 270.918437) scale(0.1 -0.1)">
       <defs>
        <path id="DejaVuSans-31" d="M 794 531 
L 1825 531 
L 1825 4091 
L 703 3866 
L 703 4441 
L 1819 4666 
L 2450 4666 
L 2450 531 
L 3481 531 
L 3481 0 
L 794 0 
L 794 531 
z
" transform="scale(0.015625)"/>
       </defs>
       <use xlink:href="#DejaVuSans-2212"/>
       <use xlink:href="#DejaVuSans-31" transform="translate(83.789062 0)"/>
      </g>
     </g>
    </g>
    <g id="xtick_4">
     <g id="line2d_4">
      <g>
       <use xlink:href="#m295b0cb750" x="464.179008" y="256.32" style="stroke: #000000; stroke-width: 0.8"/>
      </g>
     </g>
     <g id="text_4">
      <!-- 0 -->
      <g transform="translate(460.997758 270.918437) scale(0.1 -0.1)">
       <defs>
        <path id="DejaVuSans-30" d="M 2034 4250 
Q 1547 4250 1301 3770 
Q 1056 3291 1056 2328 
Q 1056 1369 1301 889 
Q 1547 409 2034 409 
Q 2525 409 2770 889 
Q 3016 1369 3016 2328 
Q 3016 3291 2770 3770 
Q 2525 4250 2034 4250 
z
M 2034 4750 
Q 2819 4750 3233 4129 
Q 3647 3509 3647 2328 
Q 3647 1150 3233 529 
Q 2819 -91 2034 -91 
Q 1250 -91 836 529 
Q 422 1150 422 2328 
Q 422 3509 836 4129 
Q 1250 4750 2034 4750 
z
" transform="scale(0.015625)"/>
       </defs>
       <use xlink:href="#DejaVuSans-30"/>
      </g>
     </g>
    </g>
    <g id="xtick_5">
     <g id="line2d_5">
      <g>
       <use xlink:href="#m295b0cb750" x="583.761312" y="256.32" style="stroke: #000000; stroke-width: 0.8"/>
      </g>
     </g>
     <g id="text_5">
      <!-- 1 -->
      <g transform="translate(580.580062 270.918437) scale(0.1 -0.1)">
       <use xlink:href="#DejaVuSans-31"/>
      </g>
     </g>
    </g>
    <g id="text_6">
     <!-- Residual (Predicted - True) -->
     <g transform="translate(303.324219 284.596563) scale(0.1 -0.1)">
      <defs>
       <path id="DejaVuSans-52" d="M 2841 2188 
Q 3044 2119 3236 1894 
Q 3428 1669 3622 1275 
L 4263 0 
L 3584 0 
L 2988 1197 
Q 2756 1666 2539 1819 
Q 2322 1972 1947 1972 
L 1259 1972 
L 1259 0 
L 628 0 
L 628 4666 
L 2053 4666 
Q 2853 4666 3247 4331 
Q 3641 3997 3641 3322 
Q 3641 2881 3436 2590 
Q 3231 2300 2841 2188 
z
M 1259 4147 
L 1259 2491 
L 2053 2491 
Q 2509 2491 2742 2702 
Q 2975 2913 2975 3322 
Q 2975 3731 2742 3939 
Q 2509 4147 2053 4147 
L 1259 4147 
z
" transform="scale(0.015625)"/>
       <path id="DejaVuSans-65" d="M 3597 1894 
L 3597 1613 
L 953 1613 
Q 991 1019 1311 708 
Q 1631 397 2203 397 
Q 2534 397 2845 478 
Q 3156 559 3463 722 
L 3463 178 
Q 3153 47 2828 -22 
Q 2503 -91 2169 -91 
Q 1331 -91 842 396 
Q 353 884 353 1716 
Q 353 2575 817 3079 
Q 1281 3584 2069 3584 
Q 2775 3584 3186 3129 
Q 3597 2675 3597 1894 
z
M 3022 2063 
Q 3016 2534 2758 2815 
Q 2500 3097 2075 3097 
Q 1594 3097 1305 2825 
Q 1016 2553 972 2059 
L 3022 2063 
z
" transform="scale(0.015625)"/>
       <path id="DejaVuSans-73" d="M 2834 3397 
L 2834 2853 
Q 2591 2978 2328 3040 
Q 2066 3103 1784 3103 
Q 1356 3103 1142 2972 
Q 928 2841 928 2578 
Q 928 2378 1081 2264 
Q 1234 2150 1697 2047 
L 1894 2003 
Q 2506 1872 2764 1633 
Q 3022 1394 3022 966 
Q 3022 478 2636 193 
Q 2250 -91 1575 -91 
Q 1294 -91 989 -36 
Q 684 19 347 128 
L 347 722 
Q 666 556 975 473 
Q 1284 391 1588 391 
Q 1994 391 2212 530 
Q 2431 669 2431 922 
Q 2431 1156 2273 1281 
Q 2116 1406 1581 1522 
L 1381 1569 
Q 847 1681 609 1914 
Q 372 2147 372 2553 
Q 372 3047 722 3315 
Q 1072 3584 1716 3584 
Q 2034 3584 2315 3537 
Q 2597 3491 2834 3397 
z
" transform="scale(0.015625)"/>
       <path id="DejaVuSans-69" d="M 603 3500 
L 1178 3500 
L 1178 0 
L 603 0 
L 603 3500 
z
M 603 4863 
L 1178 4863 
L 1178 4134 
L 603 4134 
L 603 4863 
z
" transform="scale(0.015625)"/>
       <path id="DejaVuSans-64" d="M 2906 2969 
L 2906 4863 
L 3481 4863 
L 3481 0 
L 2906 0 
L 2906 525 
Q 2725 213 2448 61 
Q 2172 -91 1784 -91 
Q 1150 -91 751 415 
Q 353 922 353 1747 
Q 353 2572 751 3078 
Q 1150 3584 1784 3584 
Q 2172 3584 2448 3432 
Q 2725 3281 2906 2969 
z
M 947 1747 
Q 947 1113 1208 752 
Q 1469 391 1925 391 
Q 2381 391 2643 752 
Q 2906 1113 2906 1747 
Q 2906 2381 2643 2742 
Q 2381 3103 1925 3103 
Q 1469 3103 1208 2742 
Q 947 2381 947 1747 
z
" transform="scale(0.015625)"/>
       <path id="DejaVuSans-75" d="M 544 1381 
L 544 3500 
L 1119 3500 
L 1119 1403 
Q 1119 906 1312 657 
Q 1506 409 1894 409 
Q 2359 409 2629 706 
Q 2900 1003 2900 1516 
L 2900 3500 
L 3475 3500 
L 3475 0 
L 2900 0 
L 2900 538 
Q 2691 219 2414 64 
Q 2138 -91 1772 -91 
Q 1169 -91 856 284 
Q 544 659 544 1381 
z
M 1991 3584 
L 1991 3584 
z
" transform="scale(0.015625)"/>
       <path id="DejaVuSans-61" d="M 2194 1759 
Q 1497 1759 1228 1600 
Q 959 1441 959 1056 
Q 959 750 1161 570 
Q 1363 391 1709 391 
Q 2188 391 2477 730 
Q 2766 1069 2766 1631 
L 2766 1759 
L 2194 1759 
z
M 3341 1997 
L 3341 0 
L 2766 0 
L 2766 531 
Q 2569 213 2275 61 
Q 1981 -91 1556 -91 
Q 1019 -91 701 211 
Q 384 513 384 1019 
Q 384 1609 779 1909 
Q 1175 2209 1959 2209 
L 2766 2209 
L 2766 2266 
Q 2766 2663 2505 2880 
Q 2244 3097 1772 3097 
Q 1472 3097 1187 3025 
Q 903 2953 641 2809 
L 641 3341 
Q 956 3463 1253 3523 
Q 1550 3584 1831 3584 
Q 2591 3584 2966 3190 
Q 3341 2797 3341 1997 
z
" transform="scale(0.015625)"/>
       <path id="DejaVuSans-6c" d="M 603 4863 
L 1178 4863 
L 1178 0 
L 603 0 
L 603 4863 
z
" transform="scale(0.015625)"/>
       <path id="DejaVuSans-20" transform="scale(0.015625)"/>
       <path id="DejaVuSans-28" d="M 1984 4856 
Q 1566 4138 1362 3434 
Q 1159 2731 1159 2009 
Q 1159 1288 1364 580 
Q 1569 -128 1984 -844 
L 1484 -844 
Q 1016 -109 783 600 
Q 550 1309 550 2009 
Q 550 2706 781 3412 
Q 1013 4119 1484 4856 
L 1984 4856 
z
" transform="scale(0.015625)"/>
       <path id="DejaVuSans-50" d="M 1259 4147 
L 1259 2394 
L 2053 2394 
Q 2494 2394 2734 2622 
Q 2975 2850 2975 3272 
Q 2975 3691 2734 3919 
Q 2494 4147 2053 4147 
L 1259 4147 
z
M 628 4666 
L 2053 4666 
Q 2838 4666 3239 4311 
Q 3641 3956 3641 3272 
Q 3641 2581 3239 2228 
Q 2838 1875 2053 1875 
L 1259 1875 
L 1259 0 
L 628 0 
L 628 4666 
z
" transform="scale(0.015625)"/>
       <path id="DejaVuSans-72" d="M 2631 2963 
Q 2534 3019 2420 3045 
Q 2306 3072 2169 3072 
Q 1681 3072 1420 2755 
Q 1159 2438 1159 1844 
L 1159 0 
L 581 0 
L 581 3500 
L 1159 3500 
L 1159 2956 
Q 1341 3275 1631 3429 
Q 1922 3584 2338 3584 
Q 2397 3584 2469 3576 
Q 2541 3569 2628 3553 
L 2631 2963 
z
" transform="scale(0.015625)"/>
       <path id="DejaVuSans-63" d="M 3122 3366 
L 3122 2828 
Q 2878 2963 2633 3030 
Q 2388 3097 2138 3097 
Q 1578 3097 1268 2742 
Q 959 2388 959 1747 
Q 959 1106 1268 751 
Q 1578 397 2138 397 
Q 2388 397 2633 464 
Q 2878 531 3122 666 
L 3122 134 
Q 2881 22 2623 -34 
Q 2366 -91 2075 -91 
Q 1284 -91 818 406 
Q 353 903 353 1747 
Q 353 2603 823 3093 
Q 1294 3584 2113 3584 
Q 2378 3584 2631 3529 
Q 2884 3475 3122 3366 
z
" transform="scale(0.015625)"/>
       <path id="DejaVuSans-74" d="M 1172 4494 
L 1172 3500 
L 2356 3500 
L 2356 3053 
L 1172 3053 
L 1172 1153 
Q 1172 725 1289 603 
Q 1406 481 1766 481 
L 2356 481 
L 2356 0 
L 1766 0 
Q 1100 0 847 248 
Q 594 497 594 1153 
L 594 3053 
L 172 3053 
L 172 3500 
L 594 3500 
L 594 4494 
L 1172 4494 
z
" transform="scale(0.015625)"/>
       <path id="DejaVuSans-2d" d="M 313 2009 
L 1997 2009 
L 1997 1497 
L 313 1497 
L 313 2009 
z
" transform="scale(0.015625)"/>
       <path id="DejaVuSans-54" d="M -19 4666 
L 3928 4666 
L 3928 4134 
L 2272 4134 
L 2272 0 
L 1638 0 
L 1638 4134 
L -19 4134 
L -19 4666 
z
" transform="scale(0.015625)"/>
       <path id="DejaVuSans-29" d="M 513 4856 
L 1013 4856 
Q 1481 4119 1714 3412 
Q 1947 2706 1947 2009 
Q 1947 1309 1714 600 
Q 1481 -109 1013 -844 
L 513 -844 
Q 928 -128 1133 580 
Q 1338 1288 1338 2009 
Q 1338 2731 1133 3434 
Q 928 4138 513 4856 
z
" transform="scale(0.015625)"/>
      </defs>
      <use xlink:href="#DejaVuSans-52"/>
      <use xlink:href="#DejaVuSans-65" transform="translate(64.982422 0)"/>
      <use xlink:href="#DejaVuSans-73" transform="translate(126.505859 0)"/>
      <use xlink:href="#DejaVuSans-69" transform="translate(178.605469 0)"/>
      <use xlink:href="#DejaVuSans-64" transform="translate(206.388672 0)"/>
      <use xlink:href="#DejaVuSans-75" transform="translate(269.865234 0)"/>
      <use xlink:href="#DejaVuSans-61" transform="translate(333.244141 0)"/>
      <use xlink:href="#DejaVuSans-6c" transform="translate(394.523438 0)"/>
      <use xlink:href="#DejaVuSans-20" transform="translate(422.306641 0)"/>
      <use xlink:href="#DejaVuSans-28" transform="translate(454.09375 0)"/>
      <use xlink:href="#DejaVuSans-50" transform="translate(493.107422 0)"/>
      <use xlink:href="#DejaVuSans-72" transform="translate(551.660156 0)"/>
      <use xlink:href="#DejaVuSans-65" transform="translate(590.523438 0)"/>
      <use xlink:href="#DejaVuSans-64" transform="translate(652.046875 0)"/>
      <use xlink:href="#DejaVuSans-69" transform="translate(715.523438 0)"/>
      <use xlink:href="#DejaVuSans-63" transform="translate(743.306641 0)"/>
      <use xlink:href="#DejaVuSans-74" transform="translate(798.287109 0)"/>
      <use xlink:href="#DejaVuSans-65" transform="translate(837.496094 0)"/>
      <use xlink:href="#DejaVuSans-64" transform="translate(899.019531 0)"/>
      <use xlink:href="#DejaVuSans-20" transform="translate(962.496094 0)"/>
      <use xlink:href="#DejaVuSans-2d" transform="translate(994.283203 0)"/>
      <use xlink:href="#DejaVuSans-20" transform="translate(1030.367188 0)"/>
      <use xlink:href="#DejaVuSans-54" transform="translate(1062.154297 0)"/>
      <use xlink:href="#DejaVuSans-72" transform="translate(1108.488281 0)"/>
      <use xlink:href="#DejaVuSans-75" transform="translate(1149.601562 0)"/>
      <use xlink:href="#DejaVuSans-65" transform="translate(1212.980469 0)"/>
      <use xlink:href="#DejaVuSans-29" transform="translate(1274.503906 0)"/>
     </g>
    </g>
   </g>
   <g id="matplotlib.axis_2">
    <g id="ytick_1">
     <g id="line2d_6">
      <defs>
       <path id="mc77c3c0d09" d="M 0 0 
L -3.5 0 
" style="stroke: #000000; stroke-width: 0.8"/>
      </defs>
      <g>
       <use xlink:href="#mc77c3c0d09" x="90" y="256.32" style="stroke: #000000; stroke-width: 0.8"/>
      </g>
     </g>
     <g id="text_7">
      <!-- 0.0 -->
      <g transform="translate(67.096875 260.119219) scale(0.1 -0.1)">
       <defs>
        <path id="DejaVuSans-2e" d="M 684 794 
L 1344 794 
L 1344 0 
L 684 0 
L 684 794 
z
" transform="scale(0.015625)"/>
       </defs>
       <use xlink:href="#DejaVuSans-30"/>
       <use xlink:href="#DejaVuSans-2e" transform="translate(63.623047 0)"/>
       <use xlink:href="#DejaVuSans-30" transform="translate(95.410156 0)"/>
      </g>
     </g>
    </g>
    <g id="ytick_2">
     <g id="line2d_7">
      <g>
       <use xlink:href="#mc77c3c0d09" x="90" y="216.346223" style="stroke: #000000; stroke-width: 0.8"/>
      </g>
     </g>
     <g id="text_8">
      <!-- 0.2 -->
      <g transform="translate(67.096875 220.145442) scale(0.1 -0.1)">
       <use xlink:href="#DejaVuSans-30"/>
       <use xlink:href="#DejaVuSans-2e" transform="translate(63.623047 0)"/>
       <use xlink:href="#DejaVuSans-32" transform="translate(95.410156 0)"/>
      </g>
     </g>
    </g>
    <g id="ytick_3">
     <g id="line2d_8">
      <g>
       <use xlink:href="#mc77c3c0d09" x="90" y="176.372446" style="stroke: #000000; stroke-width: 0.8"/>
      </g>
     </g>
     <g id="text_9">
      <!-- 0.4 -->
      <g transform="translate(67.096875 180.171665) scale(0.1 -0.1)">
       <defs>
        <path id="DejaVuSans-34" d="M 2419 4116 
L 825 1625 
L 2419 1625 
L 2419 4116 
z
M 2253 4666 
L 3047 4666 
L 3047 1625 
L 3713 1625 
L 3713 1100 
L 3047 1100 
L 3047 0 
L 2419 0 
L 2419 1100 
L 313 1100 
L 313 1709 
L 2253 4666 
z
" transform="scale(0.015625)"/>
       </defs>
       <use xlink:href="#DejaVuSans-30"/>
       <use xlink:href="#DejaVuSans-2e" transform="translate(63.623047 0)"/>
       <use xlink:href="#DejaVuSans-34" transform="translate(95.410156 0)"/>
      </g>
     </g>
    </g>
    <g id="ytick_4">
     <g id="line2d_9">
      <g>
       <use xlink:href="#mc77c3c0d09" x="90" y="136.39867" style="stroke: #000000; stroke-width: 0.8"/>
      </g>
     </g>
     <g id="text_10">
      <!-- 0.6 -->
      <g transform="translate(67.096875 140.197888) scale(0.1 -0.1)">
       <defs>
        <path id="DejaVuSans-36" d="M 2113 2584 
Q 1688 2584 1439 2293 
Q 1191 2003 1191 1497 
Q 1191 994 1439 701 
Q 1688 409 2113 409 
Q 2538 409 2786 701 
Q 3034 994 3034 1497 
Q 3034 2003 2786 2293 
Q 2538 2584 2113 2584 
z
M 3366 4563 
L 3366 3988 
Q 3128 4100 2886 4159 
Q 2644 4219 2406 4219 
Q 1781 4219 1451 3797 
Q 1122 3375 1075 2522 
Q 1259 2794 1537 2939 
Q 1816 3084 2150 3084 
Q 2853 3084 3261 2657 
Q 3669 2231 3669 1497 
Q 3669 778 3244 343 
Q 2819 -91 2113 -91 
Q 1303 -91 875 529 
Q 447 1150 447 2328 
Q 447 3434 972 4092 
Q 1497 4750 2381 4750 
Q 2619 4750 2861 4703 
Q 3103 4656 3366 4563 
z
" transform="scale(0.015625)"/>
       </defs>
       <use xlink:href="#DejaVuSans-30"/>
       <use xlink:href="#DejaVuSans-2e" transform="translate(63.623047 0)"/>
       <use xlink:href="#DejaVuSans-36" transform="translate(95.410156 0)"/>
      </g>
     </g>
    </g>
    <g id="ytick_5">
     <g id="line2d_10">
      <g>
       <use xlink:href="#mc77c3c0d09" x="90" y="96.424893" style="stroke: #000000; stroke-width: 0.8"/>
      </g>
     </g>
     <g id="text_11">
      <!-- 0.8 -->
      <g transform="translate(67.096875 100.224112) scale(0.1 -0.1)">
       <defs>
        <path id="DejaVuSans-38" d="M 2034 2216 
Q 1584 2216 1326 1975 
Q 1069 1734 1069 1313 
Q 1069 891 1326 650 
Q 1584 409 2034 409 
Q 2484 409 2743 651 
Q 3003 894 3003 1313 
Q 3003 1734 2745 1975 
Q 2488 2216 2034 2216 
z
M 1403 2484 
Q 997 2584 770 2862 
Q 544 3141 544 3541 
Q 544 4100 942 4425 
Q 1341 4750 2034 4750 
Q 2731 4750 3128 4425 
Q 3525 4100 3525 3541 
Q 3525 3141 3298 2862 
Q 3072 2584 2669 2484 
Q 3125 2378 3379 2068 
Q 3634 1759 3634 1313 
Q 3634 634 3220 271 
Q 2806 -91 2034 -91 
Q 1263 -91 848 271 
Q 434 634 434 1313 
Q 434 1759 690 2068 
Q 947 2378 1403 2484 
z
M 1172 3481 
Q 1172 3119 1398 2916 
Q 1625 2713 2034 2713 
Q 2441 2713 2670 2916 
Q 2900 3119 2900 3481 
Q 2900 3844 2670 4047 
Q 2441 4250 2034 4250 
Q 1625 4250 1398 4047 
Q 1172 3844 1172 3481 
z
" transform="scale(0.015625)"/>
       </defs>
       <use xlink:href="#DejaVuSans-30"/>
       <use xlink:href="#DejaVuSans-2e" transform="translate(63.623047 0)"/>
       <use xlink:href="#DejaVuSans-38" transform="translate(95.410156 0)"/>
      </g>
     </g>
    </g>
    <g id="ytick_6">
     <g id="line2d_11">
      <g>
       <use xlink:href="#mc77c3c0d09" x="90" y="56.451116" style="stroke: #000000; stroke-width: 0.8"/>
      </g>
     </g>
     <g id="text_12">
      <!-- 1.0 -->
      <g transform="translate(67.096875 60.250335) scale(0.1 -0.1)">
       <use xlink:href="#DejaVuSans-31"/>
       <use xlink:href="#DejaVuSans-2e" transform="translate(63.623047 0)"/>
       <use xlink:href="#DejaVuSans-30" transform="translate(95.410156 0)"/>
      </g>
     </g>
    </g>
    <g id="text_13">
     <!-- Density -->
     <g transform="translate(61.017187 164.448594) rotate(-90) scale(0.1 -0.1)">
      <defs>
       <path id="DejaVuSans-44" d="M 1259 4147 
L 1259 519 
L 2022 519 
Q 2988 519 3436 956 
Q 3884 1394 3884 2338 
Q 3884 3275 3436 3711 
Q 2988 4147 2022 4147 
L 1259 4147 
z
M 628 4666 
L 1925 4666 
Q 3281 4666 3915 4102 
Q 4550 3538 4550 2338 
Q 4550 1131 3912 565 
Q 3275 0 1925 0 
L 628 0 
L 628 4666 
z
" transform="scale(0.015625)"/>
       <path id="DejaVuSans-6e" d="M 3513 2113 
L 3513 0 
L 2938 0 
L 2938 2094 
Q 2938 2591 2744 2837 
Q 2550 3084 2163 3084 
Q 1697 3084 1428 2787 
Q 1159 2491 1159 1978 
L 1159 0 
L 581 0 
L 581 3500 
L 1159 3500 
L 1159 2956 
Q 1366 3272 1645 3428 
Q 1925 3584 2291 3584 
Q 2894 3584 3203 3211 
Q 3513 2838 3513 2113 
z
" transform="scale(0.015625)"/>
       <path id="DejaVuSans-79" d="M 2059 -325 
Q 1816 -950 1584 -1140 
Q 1353 -1331 966 -1331 
L 506 -1331 
L 506 -850 
L 844 -850 
Q 1081 -850 1212 -737 
Q 1344 -625 1503 -206 
L 1606 56 
L 191 3500 
L 800 3500 
L 1894 763 
L 2988 3500 
L 3597 3500 
L 2059 -325 
z
" transform="scale(0.015625)"/>
      </defs>
      <use xlink:href="#DejaVuSans-44"/>
      <use xlink:href="#DejaVuSans-65" transform="translate(77.001953 0)"/>
      <use xlink:href="#DejaVuSans-6e" transform="translate(138.525391 0)"/>
      <use xlink:href="#DejaVuSans-73" transform="translate(201.904297 0)"/>
      <use xlink:href="#DejaVuSans-69" transform="translate(254.003906 0)"/>
      <use xlink:href="#DejaVuSans-74" transform="translate(281.787109 0)"/>
      <use xlink:href="#DejaVuSans-79" transform="translate(320.996094 0)"/>
     </g>
    </g>
   </g>
   <g id="line2d_12">
    <path d="M 137.722682 255.896 
L 166.963708 255.535299 
L 179.147469 255.117516 
L 203.514991 254.204642 
L 218.135504 253.683069 
L 227.882513 253.043693 
L 237.629521 252.135666 
L 249.813282 250.759198 
L 269.307299 248.302792 
L 283.927812 246.228384 
L 296.111573 244.339938 
L 303.42183 242.983205 
L 308.295334 241.87639 
L 313.168838 240.582624 
L 320.479095 238.382018 
L 332.662856 234.675394 
L 349.720121 229.724805 
L 357.030377 227.228785 
L 364.340634 224.445534 
L 371.65089 221.383896 
L 376.524395 219.105214 
L 381.397899 216.495844 
L 383.834651 215.01427 
L 386.271403 213.383861 
L 388.708156 211.582275 
L 391.144908 209.58972 
L 393.58166 207.390271 
L 396.018412 204.972671 
L 398.455164 202.33041 
L 400.891916 199.46097 
L 403.328669 196.364277 
L 405.765421 193.040577 
L 408.202173 189.488079 
L 410.638925 185.700795 
L 413.075677 181.667042 
L 415.512429 177.368963 
L 417.949182 172.783338 
L 420.385934 167.883752 
L 422.822686 162.644074 
L 425.259438 157.043011 
L 427.69619 151.069464 
L 430.132942 144.72828 
L 435.006447 131.075758 
L 444.753455 102.4749 
L 447.190208 95.943578 
L 449.62696 90.04978 
L 452.063712 84.992809 
L 454.500464 80.950784 
L 456.937216 78.065 
L 459.373968 76.426399 
L 461.810721 76.066026 
L 464.247473 76.950923 
L 466.684225 78.986191 
L 469.120977 82.023061 
L 471.557729 85.871946 
L 473.994481 90.318746 
L 478.867986 100.130781 
L 483.74149 109.880462 
L 486.178242 114.367785 
L 488.614994 118.478754 
L 491.051747 122.171624 
L 493.488499 125.43711 
L 495.925251 128.292779 
L 498.362003 130.77729 
L 500.798755 132.945124 
L 503.235507 134.862088 
L 508.109012 138.241105 
L 512.982516 141.533636 
L 515.419268 143.334689 
L 517.85602 145.325216 
L 520.292773 147.555549 
L 522.729525 150.060991 
L 525.166277 152.859746 
L 527.603029 155.951943 
L 530.039781 159.319894 
L 534.913286 166.733632 
L 549.533799 190.255018 
L 551.970551 193.778949 
L 554.407303 197.096058 
L 556.844055 200.198174 
L 559.280807 203.088509 
L 561.717559 205.779756 
L 566.591064 210.648674 
L 571.464568 215.003377 
L 576.338072 219.046184 
L 590.958585 230.656522 
L 600.705594 238.330531 
L 605.579098 241.972978 
L 610.452603 245.320214 
L 615.326107 248.25009 
L 617.762859 249.529935 
L 620.199611 250.677736 
L 622.636364 251.69168 
L 622.636364 251.69168 
" clip-path="url(#pcf22e2123e)" style="fill: none; stroke: #0000ff; stroke-width: 1.5; stroke-linecap: square"/>
   </g>
   <g id="line2d_13">
    <path d="M 115.363636 255.252149 
L 127.510587 255.304998 
L 144.516318 255.381612 
L 168.81022 255.285861 
L 180.95717 255.571185 
L 200.392291 256.099262 
L 212.539242 256.184061 
L 222.256803 256.029849 
L 229.544973 255.70348 
L 236.833144 255.102279 
L 241.691924 254.505966 
L 246.550704 253.731711 
L 251.409484 252.772056 
L 256.268265 251.630199 
L 261.127045 250.318607 
L 268.415215 248.077889 
L 275.703386 245.594021 
L 295.138507 238.771735 
L 302.426677 236.49391 
L 309.714848 234.48677 
L 314.573628 233.327791 
L 319.432409 232.33874 
L 324.291189 231.540884 
L 329.149969 230.939284 
L 336.43814 230.335758 
L 346.1557 229.640337 
L 351.01448 229.069591 
L 355.873261 228.201842 
L 360.732041 226.976546 
L 365.590821 225.389064 
L 370.449602 223.479176 
L 375.308382 221.298313 
L 380.167162 218.864999 
L 385.025942 216.12403 
L 387.455333 214.594804 
L 389.884723 212.924498 
L 392.314113 211.080177 
L 394.743503 209.025083 
L 397.172893 206.720124 
L 399.602283 204.125569 
L 402.031673 201.202837 
L 404.461064 197.916333 
L 406.890454 194.235254 
L 409.319844 190.135344 
L 411.749234 185.600548 
L 414.178624 180.624561 
L 416.608014 175.212244 
L 419.037404 169.380857 
L 421.466795 163.161074 
L 426.325575 149.749917 
L 440.901916 107.644701 
L 443.331306 101.472534 
L 445.760696 95.846995 
L 448.190086 90.869031 
L 450.619476 86.624397 
L 453.048866 83.179616 
L 455.478257 80.578783 
L 457.907647 78.841536 
L 460.337037 77.962356 
L 462.766427 77.911331 
L 465.195817 78.63633 
L 467.625207 80.066443 
L 470.054597 82.116427 
L 472.483988 84.691785 
L 474.913378 87.694089 
L 477.342768 91.026131 
L 482.201548 98.323362 
L 496.777889 121.022653 
L 504.066059 131.703327 
L 513.78362 145.440318 
L 525.930571 162.206087 
L 533.218741 171.974438 
L 540.506912 181.428616 
L 547.795082 190.530701 
L 555.083253 199.263759 
L 562.371423 207.617756 
L 569.659593 215.590841 
L 576.947764 223.174464 
L 581.806544 227.987914 
L 586.665324 232.564209 
L 591.524105 236.845653 
L 596.382885 240.763472 
L 598.812275 242.564434 
L 598.812275 242.564434 
" clip-path="url(#pcf22e2123e)" style="fill: none; stroke: #ffa500; stroke-width: 1.5; stroke-linecap: square"/>
   </g>
   <g id="line2d_14">
    <path d="M 144.264971 255.867924 
L 172.786037 255.455824 
L 182.293059 255.056282 
L 203.683858 254.011017 
L 220.321147 253.395789 
L 227.451413 252.888021 
L 234.58168 252.144699 
L 253.595724 249.976 
L 267.856257 248.559835 
L 274.986523 247.586219 
L 284.493545 245.971952 
L 296.377323 243.715773 
L 305.884344 241.688949 
L 313.014611 239.910967 
L 320.144877 237.883948 
L 329.651899 234.881205 
L 341.535677 230.845325 
L 367.679987 221.795229 
L 372.433498 219.857623 
L 377.187009 217.649666 
L 381.94052 215.106396 
L 386.694031 212.163885 
L 391.447542 208.74816 
L 393.824298 206.836343 
L 396.201053 204.773378 
L 398.577808 202.547549 
L 400.954564 200.146923 
L 403.331319 197.559205 
L 405.708075 194.771484 
L 408.08483 191.769977 
L 410.461586 188.5399 
L 412.838341 185.065599 
L 415.215097 181.331029 
L 417.591852 177.32062 
L 419.968608 173.020537 
L 422.345363 168.420249 
L 424.722119 163.514355 
L 427.098874 158.304568 
L 431.852385 147.027993 
L 436.605896 134.822468 
L 446.112918 109.712829 
L 448.489674 103.861274 
L 450.866429 98.416846 
L 453.243185 93.501506 
L 455.61994 89.229042 
L 457.996696 85.697986 
L 460.373451 82.984981 
L 462.750207 81.139311 
L 465.126962 80.179241 
L 467.503718 80.090633 
L 469.880473 80.828061 
L 472.257229 82.318358 
L 474.633984 84.466208 
L 477.01074 87.161215 
L 479.387495 90.285688 
L 481.764251 93.722369 
L 486.517762 101.105847 
L 493.648028 112.269123 
L 498.401539 119.2841 
L 503.15505 125.925597 
L 515.038827 142.223259 
L 519.792338 149.215959 
L 524.545849 156.640096 
L 534.052871 172.244072 
L 538.806382 179.857368 
L 543.559893 186.918482 
L 545.936649 190.164149 
L 548.313404 193.194022 
L 550.69016 195.99997 
L 553.066915 198.582954 
L 555.443671 200.952515 
L 557.820426 203.125918 
L 562.573937 206.984874 
L 567.327448 210.404057 
L 576.83447 217.000324 
L 581.587981 220.599506 
L 586.341492 224.516555 
L 593.471758 230.84172 
L 600.602025 237.226682 
L 605.355536 241.20792 
L 610.109047 244.788243 
L 612.485802 246.394244 
L 614.862558 247.865931 
L 617.239313 249.198636 
L 617.239313 249.198636 
" clip-path="url(#pcf22e2123e)" style="fill: none; stroke: #008000; stroke-width: 1.5; stroke-linecap: square"/>
   </g>
   <g id="line2d_15">
    <path d="M 123.725897 255.215515 
L 137.964411 255.240615 
L 154.57601 255.243982 
L 171.18761 255.233555 
L 183.053038 255.498745 
L 206.783894 256.136066 
L 218.649322 256.168021 
L 228.141665 255.954509 
L 235.260922 255.562026 
L 240.007093 255.138459 
L 244.753264 254.550405 
L 249.499436 253.77145 
L 254.245607 252.783113 
L 258.991778 251.578918 
L 263.737949 250.167833 
L 270.857206 247.726942 
L 292.214977 239.926581 
L 296.961148 238.507462 
L 301.70732 237.277043 
L 306.453491 236.220958 
L 313.572748 234.886134 
L 325.438176 232.996965 
L 339.67669 230.76491 
L 346.795947 229.437719 
L 351.542118 228.375483 
L 356.288289 227.122702 
L 361.034461 225.651103 
L 365.780632 223.942139 
L 370.526803 221.9751 
L 375.272974 219.711092 
L 380.019146 217.08083 
L 382.392231 215.597655 
L 384.765317 213.982663 
L 387.138403 212.2197 
L 389.511488 210.292274 
L 391.884574 208.184169 
L 394.257659 205.880019 
L 396.630745 203.365795 
L 399.003831 200.629195 
L 401.376916 197.659921 
L 403.750002 194.449882 
L 406.123088 190.993337 
L 408.496173 187.28702 
L 410.869259 183.330284 
L 413.242345 179.1253 
L 417.988516 169.995064 
L 422.734687 159.982304 
L 427.480858 149.243081 
L 434.600115 132.327811 
L 441.719372 115.568809 
L 446.465543 105.281778 
L 448.838629 100.602596 
L 451.211715 96.319231 
L 453.5848 92.490725 
L 455.957886 89.168817 
L 458.330972 86.395893 
L 460.704057 84.20335 
L 463.077143 82.610535 
L 465.450229 81.624323 
L 467.823314 81.239385 
L 470.1964 81.439102 
L 472.569485 82.197005 
L 474.942571 83.478622 
L 477.315657 85.243513 
L 479.688742 87.44732 
L 482.061828 90.043668 
L 484.434914 92.985748 
L 486.807999 96.227542 
L 489.181085 99.724626 
L 493.927256 107.317307 
L 498.673427 115.450644 
L 512.911941 140.479235 
L 517.658113 148.383732 
L 522.404284 155.909792 
L 527.150455 163.078249 
L 534.269712 173.338597 
L 543.762055 186.541882 
L 550.881311 196.153254 
L 555.627483 202.294098 
L 560.373654 208.105459 
L 565.119825 213.516325 
L 569.865997 218.508398 
L 574.612168 223.117175 
L 579.358339 227.411951 
L 584.10451 231.464447 
L 591.223767 237.174201 
L 595.969938 240.718367 
L 595.969938 240.718367 
" clip-path="url(#pcf22e2123e)" style="fill: none; stroke: #ff0000; stroke-width: 1.5; stroke-linecap: square"/>
   </g>
   <g id="line2d_16">
    <path d="M 464.179008 256.32 
L 464.179008 34.56 
" clip-path="url(#pcf22e2123e)" style="fill: none; stroke-dasharray: 5.55,2.4; stroke-dashoffset: 0; stroke: #000000; stroke-width: 1.5"/>
   </g>
   <g id="patch_83">
    <path d="M 90 256.32 
L 90 34.56 
" style="fill: none; stroke: #000000; stroke-width: 0.8; stroke-linejoin: miter; stroke-linecap: square"/>
   </g>
   <g id="patch_84">
    <path d="M 648 256.32 
L 648 34.56 
" style="fill: none; stroke: #000000; stroke-width: 0.8; stroke-linejoin: miter; stroke-linecap: square"/>
   </g>
   <g id="patch_85">
    <path d="M 90 256.32 
L 648 256.32 
" style="fill: none; stroke: #000000; stroke-width: 0.8; stroke-linejoin: miter; stroke-linecap: square"/>
   </g>
   <g id="patch_86">
    <path d="M 90 34.56 
L 648 34.56 
" style="fill: none; stroke: #000000; stroke-width: 0.8; stroke-linejoin: miter; stroke-linecap: square"/>
   </g>
   <g id="text_14">
    <!-- Histogram of Residuals -->
    <g transform="translate(299.813438 28.56) scale(0.12 -0.12)">
     <defs>
      <path id="DejaVuSans-48" d="M 628 4666 
L 1259 4666 
L 1259 2753 
L 3553 2753 
L 3553 4666 
L 4184 4666 
L 4184 0 
L 3553 0 
L 3553 2222 
L 1259 2222 
L 1259 0 
L 628 0 
L 628 4666 
z
" transform="scale(0.015625)"/>
      <path id="DejaVuSans-6f" d="M 1959 3097 
Q 1497 3097 1228 2736 
Q 959 2375 959 1747 
Q 959 1119 1226 758 
Q 1494 397 1959 397 
Q 2419 397 2687 759 
Q 2956 1122 2956 1747 
Q 2956 2369 2687 2733 
Q 2419 3097 1959 3097 
z
M 1959 3584 
Q 2709 3584 3137 3096 
Q 3566 2609 3566 1747 
Q 3566 888 3137 398 
Q 2709 -91 1959 -91 
Q 1206 -91 779 398 
Q 353 888 353 1747 
Q 353 2609 779 3096 
Q 1206 3584 1959 3584 
z
" transform="scale(0.015625)"/>
      <path id="DejaVuSans-67" d="M 2906 1791 
Q 2906 2416 2648 2759 
Q 2391 3103 1925 3103 
Q 1463 3103 1205 2759 
Q 947 2416 947 1791 
Q 947 1169 1205 825 
Q 1463 481 1925 481 
Q 2391 481 2648 825 
Q 2906 1169 2906 1791 
z
M 3481 434 
Q 3481 -459 3084 -895 
Q 2688 -1331 1869 -1331 
Q 1566 -1331 1297 -1286 
Q 1028 -1241 775 -1147 
L 775 -588 
Q 1028 -725 1275 -790 
Q 1522 -856 1778 -856 
Q 2344 -856 2625 -561 
Q 2906 -266 2906 331 
L 2906 616 
Q 2728 306 2450 153 
Q 2172 0 1784 0 
Q 1141 0 747 490 
Q 353 981 353 1791 
Q 353 2603 747 3093 
Q 1141 3584 1784 3584 
Q 2172 3584 2450 3431 
Q 2728 3278 2906 2969 
L 2906 3500 
L 3481 3500 
L 3481 434 
z
" transform="scale(0.015625)"/>
      <path id="DejaVuSans-6d" d="M 3328 2828 
Q 3544 3216 3844 3400 
Q 4144 3584 4550 3584 
Q 5097 3584 5394 3201 
Q 5691 2819 5691 2113 
L 5691 0 
L 5113 0 
L 5113 2094 
Q 5113 2597 4934 2840 
Q 4756 3084 4391 3084 
Q 3944 3084 3684 2787 
Q 3425 2491 3425 1978 
L 3425 0 
L 2847 0 
L 2847 2094 
Q 2847 2600 2669 2842 
Q 2491 3084 2119 3084 
Q 1678 3084 1418 2786 
Q 1159 2488 1159 1978 
L 1159 0 
L 581 0 
L 581 3500 
L 1159 3500 
L 1159 2956 
Q 1356 3278 1631 3431 
Q 1906 3584 2284 3584 
Q 2666 3584 2933 3390 
Q 3200 3197 3328 2828 
z
" transform="scale(0.015625)"/>
      <path id="DejaVuSans-66" d="M 2375 4863 
L 2375 4384 
L 1825 4384 
Q 1516 4384 1395 4259 
Q 1275 4134 1275 3809 
L 1275 3500 
L 2222 3500 
L 2222 3053 
L 1275 3053 
L 1275 0 
L 697 0 
L 697 3053 
L 147 3053 
L 147 3500 
L 697 3500 
L 697 3744 
Q 697 4328 969 4595 
Q 1241 4863 1831 4863 
L 2375 4863 
z
" transform="scale(0.015625)"/>
     </defs>
     <use xlink:href="#DejaVuSans-48"/>
     <use xlink:href="#DejaVuSans-69" transform="translate(75.195312 0)"/>
     <use xlink:href="#DejaVuSans-73" transform="translate(102.978516 0)"/>
     <use xlink:href="#DejaVuSans-74" transform="translate(155.078125 0)"/>
     <use xlink:href="#DejaVuSans-6f" transform="translate(194.287109 0)"/>
     <use xlink:href="#DejaVuSans-67" transform="translate(255.46875 0)"/>
     <use xlink:href="#DejaVuSans-72" transform="translate(318.945312 0)"/>
     <use xlink:href="#DejaVuSans-61" transform="translate(360.058594 0)"/>
     <use xlink:href="#DejaVuSans-6d" transform="translate(421.337891 0)"/>
     <use xlink:href="#DejaVuSans-20" transform="translate(518.75 0)"/>
     <use xlink:href="#DejaVuSans-6f" transform="translate(550.537109 0)"/>
     <use xlink:href="#DejaVuSans-66" transform="translate(611.71875 0)"/>
     <use xlink:href="#DejaVuSans-20" transform="translate(646.923828 0)"/>
     <use xlink:href="#DejaVuSans-52" transform="translate(678.710938 0)"/>
     <use xlink:href="#DejaVuSans-65" transform="translate(743.693359 0)"/>
     <use xlink:href="#DejaVuSans-73" transform="translate(805.216797 0)"/>
     <use xlink:href="#DejaVuSans-69" transform="translate(857.316406 0)"/>
     <use xlink:href="#DejaVuSans-64" transform="translate(885.099609 0)"/>
     <use xlink:href="#DejaVuSans-75" transform="translate(948.576172 0)"/>
     <use xlink:href="#DejaVuSans-61" transform="translate(1011.955078 0)"/>
     <use xlink:href="#DejaVuSans-6c" transform="translate(1073.234375 0)"/>
     <use xlink:href="#DejaVuSans-73" transform="translate(1101.017578 0)"/>
    </g>
   </g>
   <g id="legend_1">
    <g id="patch_87">
     <path d="M 561.351562 101.2725 
L 641 101.2725 
Q 643 101.2725 643 99.2725 
L 643 41.56 
Q 643 39.56 641 39.56 
L 561.351562 39.56 
Q 559.351562 39.56 559.351562 41.56 
L 559.351562 99.2725 
Q 559.351562 101.2725 561.351562 101.2725 
z
" style="fill: #ffffff; opacity: 0.8; stroke: #cccccc; stroke-linejoin: miter"/>
    </g>
    <g id="patch_88">
     <path d="M 563.351562 51.158438 
L 583.351562 51.158438 
L 583.351562 44.158438 
L 563.351562 44.158438 
z
" style="fill: #0000ff; fill-opacity: 0.5; stroke: #000000; stroke-linejoin: miter"/>
    </g>
    <g id="text_15">
     <!-- NN Train -->
     <g transform="translate(591.351562 51.158438) scale(0.1 -0.1)">
      <defs>
       <path id="DejaVuSans-4e" d="M 628 4666 
L 1478 4666 
L 3547 763 
L 3547 4666 
L 4159 4666 
L 4159 0 
L 3309 0 
L 1241 3903 
L 1241 0 
L 628 0 
L 628 4666 
z
" transform="scale(0.015625)"/>
      </defs>
      <use xlink:href="#DejaVuSans-4e"/>
      <use xlink:href="#DejaVuSans-4e" transform="translate(74.804688 0)"/>
      <use xlink:href="#DejaVuSans-20" transform="translate(149.609375 0)"/>
      <use xlink:href="#DejaVuSans-54" transform="translate(181.396484 0)"/>
      <use xlink:href="#DejaVuSans-72" transform="translate(227.730469 0)"/>
      <use xlink:href="#DejaVuSans-61" transform="translate(268.84375 0)"/>
      <use xlink:href="#DejaVuSans-69" transform="translate(330.123047 0)"/>
      <use xlink:href="#DejaVuSans-6e" transform="translate(357.90625 0)"/>
     </g>
    </g>
    <g id="patch_89">
     <path d="M 563.351562 65.836563 
L 583.351562 65.836563 
L 583.351562 58.836563 
L 563.351562 58.836563 
z
" style="fill: #ffa500; fill-opacity: 0.5; stroke: #000000; stroke-linejoin: miter"/>
    </g>
    <g id="text_16">
     <!-- NN Test -->
     <g transform="translate(591.351562 65.836563) scale(0.1 -0.1)">
      <use xlink:href="#DejaVuSans-4e"/>
      <use xlink:href="#DejaVuSans-4e" transform="translate(74.804688 0)"/>
      <use xlink:href="#DejaVuSans-20" transform="translate(149.609375 0)"/>
      <use xlink:href="#DejaVuSans-54" transform="translate(181.396484 0)"/>
      <use xlink:href="#DejaVuSans-65" transform="translate(225.480469 0)"/>
      <use xlink:href="#DejaVuSans-73" transform="translate(287.003906 0)"/>
      <use xlink:href="#DejaVuSans-74" transform="translate(339.103516 0)"/>
     </g>
    </g>
    <g id="patch_90">
     <path d="M 563.351562 80.514688 
L 583.351562 80.514688 
L 583.351562 73.514688 
L 563.351562 73.514688 
z
" style="fill: #008000; fill-opacity: 0.5; stroke: #000000; stroke-linejoin: miter"/>
    </g>
    <g id="text_17">
     <!-- Poly Train -->
     <g transform="translate(591.351562 80.514688) scale(0.1 -0.1)">
      <use xlink:href="#DejaVuSans-50"/>
      <use xlink:href="#DejaVuSans-6f" transform="translate(56.677734 0)"/>
      <use xlink:href="#DejaVuSans-6c" transform="translate(117.859375 0)"/>
      <use xlink:href="#DejaVuSans-79" transform="translate(145.642578 0)"/>
      <use xlink:href="#DejaVuSans-20" transform="translate(204.822266 0)"/>
      <use xlink:href="#DejaVuSans-54" transform="translate(236.609375 0)"/>
      <use xlink:href="#DejaVuSans-72" transform="translate(282.943359 0)"/>
      <use xlink:href="#DejaVuSans-61" transform="translate(324.056641 0)"/>
      <use xlink:href="#DejaVuSans-69" transform="translate(385.335938 0)"/>
      <use xlink:href="#DejaVuSans-6e" transform="translate(413.119141 0)"/>
     </g>
    </g>
    <g id="patch_91">
     <path d="M 563.351562 95.192813 
L 583.351562 95.192813 
L 583.351562 88.192813 
L 563.351562 88.192813 
z
" style="fill: #ff0000; fill-opacity: 0.5; stroke: #000000; stroke-linejoin: miter"/>
    </g>
    <g id="text_18">
     <!-- Poly Test -->
     <g transform="translate(591.351562 95.192813) scale(0.1 -0.1)">
      <use xlink:href="#DejaVuSans-50"/>
      <use xlink:href="#DejaVuSans-6f" transform="translate(56.677734 0)"/>
      <use xlink:href="#DejaVuSans-6c" transform="translate(117.859375 0)"/>
      <use xlink:href="#DejaVuSans-79" transform="translate(145.642578 0)"/>
      <use xlink:href="#DejaVuSans-20" transform="translate(204.822266 0)"/>
      <use xlink:href="#DejaVuSans-54" transform="translate(236.609375 0)"/>
      <use xlink:href="#DejaVuSans-65" transform="translate(280.693359 0)"/>
      <use xlink:href="#DejaVuSans-73" transform="translate(342.216797 0)"/>
      <use xlink:href="#DejaVuSans-74" transform="translate(394.316406 0)"/>
     </g>
    </g>
   </g>
  </g>
 </g>
 <defs>
  <clipPath id="pcf22e2123e">
   <rect x="90" y="34.56" width="558" height="221.76"/>
  </clipPath>
 </defs>
</svg>
